<svg width="166" height="150" viewBox="0 0 166 150" fill="none" xmlns="http://www.w3.org/2000/svg">
<path fill-rule="evenodd" clip-rule="evenodd" d="M66.9614 57.353C69.9018 54.6792 72.8422 52.0054 75.7826 49.3316C78.1715 52.2559 80.8444 54.9297 83.8019 57.353C89.6825 52.0054 95.296 46.3904 100.643 40.5081C95.029 35.1605 89.4155 29.8129 83.8019 24.4653C80.8741 26.9927 78.067 29.6665 75.3817 32.4867C72.4286 29.667 69.6219 26.7258 66.9614 23.6632C72.8422 18.3155 78.4557 12.7006 83.8019 6.81824C95.296 17.7808 106.523 29.0108 117.483 40.5081C106.244 51.8836 95.1501 63.3809 84.2029 75.0001C78.2933 69.2232 72.5461 63.3409 66.9614 57.353Z" fill="#00B9FE"/>
<path fill-rule="evenodd" clip-rule="evenodd" d="M66.9614 40.508C64.2666 43.7383 61.3261 46.6795 58.1401 49.3315C55.7343 52.2727 53.0612 54.9465 50.1208 57.3529C47.203 60.5407 44.2626 63.7492 41.2995 66.9786C38.5216 69.3549 35.8484 71.8949 33.2802 74.5989C50.2656 91.455 67.1062 108.433 83.802 125.535C100.631 109.102 117.339 92.5243 133.923 75.8021C134.458 75.2673 134.458 74.7326 133.923 74.1978C131.651 71.9251 129.378 69.6523 127.106 67.3796C126.571 66.8448 126.037 66.8448 125.502 67.3796C111.724 81.2943 97.8245 95.0646 83.802 108.69C72.8253 97.1759 61.5983 85.9459 50.1208 74.9999C52.577 71.7386 55.5173 69.0648 58.9421 66.9786C67.2121 74.9829 75.4987 83.0045 83.802 91.0427C97.9697 77.139 112.137 63.2352 126.304 49.3315C135.014 57.375 143.301 65.7975 151.164 74.5989C129.133 97.5721 106.679 120.166 83.802 142.38C61.0806 120.187 38.6265 97.7269 16.4396 74.9999C30.3286 60.7062 44.3624 46.5352 58.5411 32.4866C61.2429 35.3241 64.0496 37.9978 66.9614 40.508Z" fill="#00B9FE"/>
</svg>
