<svg width="41" height="31" viewBox="0 0 41 31" fill="none" xmlns="http://www.w3.org/2000/svg">
<path fill-rule="evenodd" clip-rule="evenodd" d="M35.7751 2.5001C35.3751 1.6001 34.5001 0.975098 33.4751 0.975098H8.4751C7.4501 0.975098 6.5501 1.6001 6.1751 2.5001L0.975098 14.6251V28.4751C0.975098 29.8501 2.1001 30.9751 3.4751 30.9751H38.4751C39.8501 30.9751 40.9751 29.8501 40.9751 28.4751V14.6251L35.7751 2.5001ZM30.9751 15.9751C29.6001 15.9751 28.4751 17.1001 28.4751 18.4751V20.9751H13.4751V18.4751C13.4751 17.1001 12.3501 15.9751 10.9751 15.9751H5.8501L10.1251 5.9751H31.8251L36.1001 15.9751H30.9751V15.9751Z" fill="white"/>
</svg>
