<svg width="38" height="38" viewBox="0 0 38 38" fill="none" xmlns="http://www.w3.org/2000/svg">
<path fill-rule="evenodd" clip-rule="evenodd" d="M24.2872 19L36.6247 6.66246C37.3372 5.98746 37.7497 5.04996 37.7497 3.99996C37.7486 3.25753 37.5279 2.53201 37.1152 1.91482C36.7026 1.29763 36.1165 0.816369 35.4308 0.53167C34.7451 0.246971 33.9905 0.171569 33.262 0.314962C32.5336 0.458355 31.8638 0.814128 31.3372 1.33746L18.9997 13.7125L6.66222 1.33746C6.31257 0.987819 5.89749 0.710465 5.44065 0.521239C4.98382 0.332013 4.49419 0.234619 3.99972 0.234619C3.50525 0.234619 3.01562 0.332013 2.55878 0.521239C2.10195 0.710465 1.68686 0.987819 1.33722 1.33746C0.63108 2.0436 0.234375 3.00133 0.234375 3.99996C0.234375 4.99859 0.63108 5.95632 1.33722 6.66246L13.7122 19L1.37472 31.3375C0.662219 32.0125 0.249719 32.95 0.249719 34C0.250791 34.7424 0.471564 35.4679 0.884225 36.0851C1.29689 36.7023 1.88298 37.1836 2.56866 37.4683C3.25434 37.753 4.00895 37.8284 4.73741 37.685C5.46586 37.5416 6.13559 37.1858 6.66222 36.6625L18.9997 24.2875L31.3372 36.625C32.0122 37.3375 32.9497 37.75 33.9997 37.75C34.7422 37.7489 35.4677 37.5281 36.0849 37.1155C36.7021 36.7028 37.1833 36.1167 37.468 35.431C37.7527 34.7453 37.8281 33.9907 37.6847 33.2623C37.5413 32.5338 37.1856 31.8641 36.6622 31.3375L24.2872 19Z" fill="white"/>
</svg>
