<svg width="40" height="36" viewBox="0 0 40 36" fill="none" xmlns="http://www.w3.org/2000/svg">
<path fill-rule="evenodd" clip-rule="evenodd" d="M5 2.99999H0V20.5H5C6.375 20.5 7.5 19.375 7.5 18V5.5C7.5 4.12499 6.375 2.99999 5 2.99999ZM39.975 13.95C40.175 12.5 38.875 11.4 37.1 11.325C36.475 11.3 35.8 11.25 35.075 11.2C35.125 11.2 35.2 11.175 35.25 11.175C37 10.925 38.6 9.95 38.775 8.49999C38.925 7.04999 37.625 6.075 35.85 5.9C35.225 5.85 34.55 5.79999 33.875 5.74999C35.05 5.37499 35.975 4.7 36.05 3.425C36.15 1.975 34.075 0.849995 32.3 0.699995C31.625 0.649995 31.025 0.599994 30.475 0.574994H30.25C29.675 0.524994 29.175 0.524995 28.7 0.499995C20.875 0.374995 14.15 1.67499 10 4.27499V19.275C15.35 22.5 21.9 28.25 20.525 33.05C20.075 34.525 21.3 35.675 22.975 35.5C25 35.275 26.4 33.225 26.475 31.05C26.575 28.55 26.1 26.025 25.225 23.775C25.125 23.15 25.25 22.525 26.15 22.45C27.375 22.375 28.925 22.3 30.125 22.25C30.775 22.25 31.4 22.225 32 22.2H32.025C33.05 22.15 34.025 22.075 34.85 21.975C36.6 21.75 38.225 20.8 38.425 19.35C38.625 17.9 37.325 16.925 35.55 16.725C35.425 16.7 35.275 16.7 35.15 16.675C35.575 16.65 35.975 16.6 36.375 16.55C38.175 16.35 39.8 15.4 39.975 13.95V13.95Z" fill="white"/>
</svg>
