<svg width="40" height="35" viewBox="0 0 40 35" fill="none" xmlns="http://www.w3.org/2000/svg">
<path fill-rule="evenodd" clip-rule="evenodd" d="M39.975 21.5676C39.775 20.1176 38.15 19.1676 36.4 18.9426C36.025 18.8926 35.6 18.8426 35.175 18.8176C35.325 18.7926 35.45 18.7926 35.575 18.7676C37.35 18.5676 38.65 17.5926 38.45 16.1426C38.25 14.6926 36.625 13.7426 34.875 13.5176C34.025 13.4176 33.075 13.3426 32.05 13.2926H32.025C31.425 13.2676 30.8 13.2426 30.15 13.2426C28.95 13.1926 27.375 13.1426 26.175 13.0426C25.275 12.9676 25.15 12.3426 25.25 11.7176C26.125 9.46763 26.6 6.94263 26.5 4.44263C26.4 2.31763 25 0.242634 22.975 0.0176342C21.3 -0.157366 20.075 0.992634 20.5 2.46763C21.9 7.29263 15.325 13.0176 10 16.2426V31.2426C14.15 33.8176 20.875 35.1426 28.7 34.9926C29.175 34.9926 29.675 34.9676 30.25 34.9426H30.475C31.025 34.9176 31.625 34.8676 32.3 34.8176C34.075 34.6676 36.15 33.5426 36.05 32.0926C35.975 30.8176 35.05 30.1176 33.875 29.7676C34.55 29.7176 35.225 29.6676 35.85 29.6176C37.625 29.4676 38.95 28.4926 38.775 27.0176C38.625 25.5676 37.025 24.5926 35.25 24.3426C35.2 24.3426 35.125 24.3176 35.075 24.3176C35.8 24.2676 36.5 24.2426 37.1 24.1926C38.875 24.1176 40.175 23.0176 39.975 21.5676ZM5 15.0176H0V32.5176H5C6.375 32.5176 7.5 31.3926 7.5 30.0176V17.5176C7.5 16.1176 6.375 15.0176 5 15.0176Z" fill="#2DDD97"/>
</svg>
