<svg width="36" height="26" viewBox="0 0 36 26" fill="none" xmlns="http://www.w3.org/2000/svg">
<path fill-rule="evenodd" clip-rule="evenodd" d="M33.0005 0.5C32.3005 0.5 31.6755 0.775 31.2255 1.225L13.0005 19.475L4.77546 11.225C4.3047 10.7542 3.66622 10.4898 3.00046 10.4898C2.33471 10.4898 1.69622 10.7542 1.22546 11.225C0.754704 11.6958 0.490234 12.3342 0.490234 13C0.490234 13.6658 0.754704 14.3042 1.22546 14.775L11.2255 24.775C11.6755 25.225 12.3005 25.5 13.0005 25.5C13.7005 25.5 14.3255 25.225 14.7755 24.775L34.7755 4.775C35.1243 4.42392 35.3615 3.97743 35.4571 3.49179C35.5527 3.00615 35.5025 2.50308 35.3127 2.04596C35.1229 1.58884 34.802 1.19811 34.3906 0.923004C33.9791 0.647897 33.4954 0.500715 33.0005 0.5V0.5Z" fill="white"/>
</svg>
