<svg width="40" height="36" viewBox="0 0 40 36" fill="none" xmlns="http://www.w3.org/2000/svg">
<path fill-rule="evenodd" clip-rule="evenodd" d="M39.975 22.05C39.775 20.6 38.15 19.65 36.4 19.425C36.025 19.375 35.6 19.325 35.175 19.3C35.325 19.275 35.45 19.275 35.575 19.25C37.35 19.05 38.65 18.075 38.45 16.625C38.25 15.175 36.625 14.225 34.875 14C34.025 13.9 33.075 13.825 32.05 13.775H32.025C31.425 13.75 30.8 13.725 30.15 13.725C28.95 13.675 27.375 13.625 26.175 13.525C25.275 13.45 25.15 12.825 25.25 12.2C26.125 9.95 26.6 7.425 26.5 4.925C26.4 2.8 25 0.724995 22.975 0.499995C21.3 0.324995 20.075 1.475 20.5 2.95C21.9 7.77499 15.325 13.5 10 16.725V31.725C14.15 34.3 20.875 35.625 28.7 35.475C29.175 35.475 29.675 35.45 30.25 35.425H30.475C31.025 35.4 31.625 35.35 32.3 35.3C34.075 35.15 36.15 34.025 36.05 32.575C35.975 31.3 35.05 30.6 33.875 30.25C34.55 30.2 35.225 30.15 35.85 30.1C37.625 29.95 38.95 28.975 38.775 27.5C38.625 26.05 37.025 25.075 35.25 24.825C35.2 24.825 35.125 24.8 35.075 24.8C35.8 24.75 36.5 24.725 37.1 24.675C38.875 24.6 40.175 23.5 39.975 22.05ZM5 15.5H0V33H5C6.375 33 7.5 31.875 7.5 30.5V18C7.5 16.6 6.375 15.5 5 15.5Z" fill="white"/>
</svg>
