<svg width="135" height="136" viewBox="0 0 135 136" fill="none" xmlns="http://www.w3.org/2000/svg">
<path fill-rule="evenodd" clip-rule="evenodd" d="M50.5215 50.5348C53.4619 47.861 56.4023 45.1871 59.3427 42.5134C61.7316 45.4376 64.4045 48.1115 67.3621 50.5348C73.2426 45.1871 78.8562 39.5722 84.2026 33.6898C78.5891 28.3422 72.9756 22.9947 67.3621 17.6471C64.4342 20.1744 61.6271 22.8483 58.9418 25.6684C55.9887 22.8488 53.182 19.9076 50.5215 16.8449C56.4023 11.4973 62.0158 5.88233 67.3621 0C78.8562 10.9626 90.0832 22.1925 101.043 33.6898C89.8041 45.0654 78.7102 56.5627 67.763 68.1818C61.8534 62.405 56.1062 56.5226 50.5215 50.5348Z" fill="#2DDD97"/>
<path fill-rule="evenodd" clip-rule="evenodd" d="M50.5217 33.6898C47.8269 36.9201 44.8865 39.8613 41.7005 42.5134C39.2947 45.4546 36.6216 48.1284 33.6812 50.5348C30.7634 53.7225 27.823 56.9311 24.8599 60.1604C22.0819 62.5368 19.4088 65.0768 16.8406 67.7808C33.826 84.6369 50.6666 101.615 67.3623 118.717C84.1917 102.284 100.899 85.7062 117.483 68.984C118.018 68.4492 118.018 67.9145 117.483 67.3797C115.211 65.107 112.939 62.8342 110.667 60.5615C110.132 60.0267 109.598 60.0267 109.063 60.5615C95.2848 74.4762 81.3849 88.2465 67.3623 101.872C56.3857 90.3578 45.1587 79.1278 33.6812 68.1818C36.1373 64.9205 39.0777 62.2467 42.5024 60.1604C50.7725 68.1647 59.0591 76.1864 67.3623 84.2246C81.5301 70.3209 95.697 56.4171 109.865 42.5134C118.575 50.5569 126.862 58.9794 134.725 67.7808C112.693 90.754 90.239 113.348 67.3623 135.562C44.6409 113.369 22.1868 90.9088 0 68.1818C13.889 53.8881 27.9228 39.717 42.1015 25.6685C44.8032 28.5059 47.61 31.1797 50.5217 33.6898Z" fill="white"/>
</svg>
