<svg width="40" height="36" viewBox="0 0 40 36" fill="none" xmlns="http://www.w3.org/2000/svg">
<path fill-rule="evenodd" clip-rule="evenodd" d="M5 2.50823H0V20.0082H5C6.375 20.0082 7.5 18.8832 7.5 17.5082V5.00823C7.5 3.63323 6.375 2.50823 5 2.50823ZM39.975 13.4582C40.175 12.0082 38.875 10.9082 37.1 10.8332C36.475 10.8082 35.8 10.7582 35.075 10.7082C35.125 10.7082 35.2 10.6832 35.25 10.6832C37 10.4332 38.6 9.45823 38.775 8.00823C38.925 6.55823 37.625 5.58324 35.85 5.40824C35.225 5.35823 34.55 5.30823 33.875 5.25823C35.05 4.88323 35.975 4.20823 36.05 2.93323C36.15 1.48323 34.075 0.358234 32.3 0.208234C31.625 0.158234 31.025 0.108234 30.475 0.0832342H30.25C29.675 0.0332342 29.175 0.0332343 28.7 0.00823426C20.875 -0.116766 14.15 1.18323 10 3.78323V18.7832C15.35 22.0082 21.9 27.7582 20.525 32.5582C20.075 34.0332 21.3 35.1832 22.975 35.0082C25 34.7832 26.4 32.7332 26.475 30.5582C26.575 28.0582 26.1 25.5332 25.225 23.2832C25.125 22.6582 25.25 22.0332 26.15 21.9582C27.375 21.8832 28.925 21.8082 30.125 21.7582C30.775 21.7582 31.4 21.7332 32 21.7082H32.025C33.05 21.6582 34.025 21.5832 34.85 21.4832C36.6 21.2582 38.225 20.3082 38.425 18.8582C38.625 17.4082 37.325 16.4332 35.55 16.2332C35.425 16.2082 35.275 16.2082 35.15 16.1832C35.575 16.1582 35.975 16.1082 36.375 16.0582C38.175 15.8582 39.8 14.9082 39.975 13.4582Z" fill="#FF4444"/>
</svg>
