<svg width="446" height="150" viewBox="0 0 446 150" fill="none" xmlns="http://www.w3.org/2000/svg">
<path fill-rule="evenodd" clip-rule="evenodd" d="M66.9614 57.3531C69.9019 54.6793 72.8422 52.0055 75.7827 49.3317C78.1716 52.256 80.8445 54.9299 83.802 57.3531C89.6826 52.0055 95.2961 46.3905 100.643 40.5082C95.0291 35.1606 89.4155 29.813 83.802 24.4654C80.8742 26.9928 78.0671 29.6666 75.3817 32.4868C72.4287 29.6671 69.6219 26.7259 66.9614 23.6633C72.8422 18.3157 78.4558 12.7007 83.802 6.81836C95.2961 17.781 106.523 29.0109 117.483 40.5082C106.244 51.8837 95.1502 63.381 84.203 75.0002C78.2934 69.2233 72.5462 63.341 66.9614 57.3531Z" fill="#2DDD97"/>
<path fill-rule="evenodd" clip-rule="evenodd" d="M66.9612 40.5082C64.2664 43.7385 61.3259 46.6797 58.1399 49.3317C55.7341 52.2729 53.0611 54.9467 50.1206 57.3531C47.2029 60.5409 44.2624 63.7495 41.2994 66.9788C38.5214 69.3551 35.8482 71.8952 33.28 74.5991C50.2654 91.4553 67.106 108.433 83.8018 125.535C100.631 109.102 117.339 92.5245 133.923 75.8023C134.457 75.2675 134.457 74.7328 133.923 74.198C131.651 71.9253 129.378 69.6526 127.106 67.3799C126.571 66.8451 126.037 66.8451 125.502 67.3799C111.724 81.2946 97.8244 95.0649 83.8018 108.69C72.8252 97.1761 61.5981 85.9462 50.1206 75.0002C52.5768 71.7388 55.5171 69.0651 58.9419 66.9788C67.212 74.9831 75.4986 83.0047 83.8018 91.043C97.9695 77.1393 112.136 63.2355 126.304 49.3317C135.014 57.3753 143.301 65.7977 151.164 74.5991C129.133 97.5724 106.679 120.166 83.8018 142.38C61.0804 120.187 38.6263 97.7272 16.4395 75.0002C30.3284 60.7065 44.3623 46.5354 58.5409 32.4868C61.2427 35.3243 64.0495 37.9981 66.9612 40.5082Z" fill="white"/>
<path d="M176.062 93V49.25H184.875V93H176.062ZM187.375 71.6875L194.062 49.25H202.75L196.125 71.6875L203 93H194.375L187.375 71.6875ZM223.125 93.625C220.438 93.625 218.031 93.1979 215.906 92.3438C213.781 91.4896 211.979 90.3125 210.5 88.8125C209.042 87.2917 207.927 85.5417 207.156 83.5625C206.385 81.5833 206 79.4688 206 77.2188V76.0312C206 73.5104 206.354 71.1875 207.062 69.0625C207.771 66.9375 208.802 65.0938 210.156 63.5312C211.531 61.9479 213.219 60.7292 215.219 59.875C217.219 59 219.5 58.5625 222.062 58.5625C224.458 58.5625 226.594 58.9583 228.469 59.75C230.344 60.5208 231.927 61.6354 233.219 63.0938C234.51 64.5312 235.49 66.2708 236.156 68.3125C236.844 70.3333 237.188 72.6042 237.188 75.125V79.125H209.938V72.8438H227.625V72.0938C227.625 70.9062 227.406 69.8646 226.969 68.9688C226.552 68.0729 225.927 67.3854 225.094 66.9062C224.281 66.4062 223.25 66.1562 222 66.1562C220.812 66.1562 219.823 66.4062 219.031 66.9062C218.24 67.4062 217.604 68.1146 217.125 69.0312C216.667 69.9271 216.333 70.9792 216.125 72.1875C215.917 73.375 215.812 74.6562 215.812 76.0312V77.2188C215.812 78.5312 215.99 79.7292 216.344 80.8125C216.698 81.8958 217.219 82.8229 217.906 83.5938C218.594 84.3646 219.427 84.9688 220.406 85.4062C221.385 85.8438 222.5 86.0625 223.75 86.0625C225.292 86.0625 226.76 85.7708 228.156 85.1875C229.552 84.5833 230.76 83.6458 231.781 82.375L236.344 87.5938C235.656 88.5938 234.688 89.5625 233.438 90.5C232.208 91.4167 230.729 92.1667 229 92.75C227.271 93.3333 225.312 93.625 223.125 93.625ZM251.688 89.0938L260.531 59.1875H271.031L257.438 98.0625C257.146 98.9167 256.75 99.8333 256.25 100.812C255.771 101.792 255.115 102.729 254.281 103.625C253.469 104.521 252.427 105.25 251.156 105.812C249.885 106.375 248.323 106.656 246.469 106.656C245.531 106.656 244.802 106.604 244.281 106.5C243.781 106.417 243.115 106.271 242.281 106.062L242.25 98.9688C242.521 98.9688 242.76 98.9688 242.969 98.9688C243.198 98.9896 243.427 99 243.656 99C244.823 99 245.76 98.875 246.469 98.625C247.198 98.375 247.76 98 248.156 97.5C248.573 97.0208 248.906 96.4062 249.156 95.6562L251.688 89.0938ZM248.719 59.1875L255.719 83.25L256.906 93.5938L250.312 93.9375L238.219 59.1875H248.719Z" fill="#2DDD97"/>
<path d="M273.562 93V62.25H274.062L282.375 75.625V93H273.562ZM273.562 55V49.25H280.75L301.375 82.5V93H297.188L273.562 55ZM292.562 61.875V49.25H301.375V75.25H300.875L292.562 61.875ZM323.188 93.625C320.5 93.625 318.094 93.1979 315.969 92.3438C313.844 91.4896 312.042 90.3125 310.562 88.8125C309.104 87.2917 307.99 85.5417 307.219 83.5625C306.448 81.5833 306.062 79.4688 306.062 77.2188V76.0312C306.062 73.5104 306.417 71.1875 307.125 69.0625C307.833 66.9375 308.865 65.0938 310.219 63.5312C311.594 61.9479 313.281 60.7292 315.281 59.875C317.281 59 319.562 58.5625 322.125 58.5625C324.521 58.5625 326.656 58.9583 328.531 59.75C330.406 60.5208 331.99 61.6354 333.281 63.0938C334.573 64.5312 335.552 66.2708 336.219 68.3125C336.906 70.3333 337.25 72.6042 337.25 75.125V79.125H310V72.8438H327.688V72.0938C327.688 70.9062 327.469 69.8646 327.031 68.9688C326.615 68.0729 325.99 67.3854 325.156 66.9062C324.344 66.4062 323.312 66.1562 322.062 66.1562C320.875 66.1562 319.885 66.4062 319.094 66.9062C318.302 67.4062 317.667 68.1146 317.188 69.0312C316.729 69.9271 316.396 70.9792 316.188 72.1875C315.979 73.375 315.875 74.6562 315.875 76.0312V77.2188C315.875 78.5312 316.052 79.7292 316.406 80.8125C316.76 81.8958 317.281 82.8229 317.969 83.5938C318.656 84.3646 319.49 84.9688 320.469 85.4062C321.448 85.8438 322.562 86.0625 323.812 86.0625C325.354 86.0625 326.823 85.7708 328.219 85.1875C329.615 84.5833 330.823 83.6458 331.844 82.375L336.406 87.5938C335.719 88.5938 334.75 89.5625 333.5 90.5C332.271 91.4167 330.792 92.1667 329.062 92.75C327.333 93.3333 325.375 93.625 323.188 93.625ZM360 83.5938C360 82.9688 359.802 82.4167 359.406 81.9375C359.031 81.4583 358.344 81.0208 357.344 80.625C356.365 80.2292 354.979 79.8333 353.188 79.4375C351.5 79.0833 349.927 78.625 348.469 78.0625C347.01 77.4792 345.74 76.7812 344.656 75.9688C343.573 75.1354 342.729 74.1562 342.125 73.0312C341.521 71.8854 341.219 70.5833 341.219 69.125C341.219 67.7083 341.521 66.3646 342.125 65.0938C342.75 63.8229 343.646 62.6979 344.812 61.7188C346 60.7396 347.438 59.9688 349.125 59.4062C350.833 58.8438 352.771 58.5625 354.938 58.5625C357.917 58.5625 360.49 59.0312 362.656 59.9688C364.823 60.8854 366.49 62.1771 367.656 63.8438C368.823 65.4896 369.406 67.375 369.406 69.5H359.656C359.656 68.625 359.49 67.8646 359.156 67.2188C358.823 66.5729 358.312 66.0729 357.625 65.7188C356.938 65.3438 356.031 65.1562 354.906 65.1562C354.031 65.1562 353.26 65.3125 352.594 65.625C351.948 65.9167 351.438 66.3229 351.062 66.8438C350.708 67.3646 350.531 67.9688 350.531 68.6562C350.531 69.1354 350.635 69.5729 350.844 69.9688C351.073 70.3438 351.417 70.6979 351.875 71.0312C352.354 71.3438 352.969 71.625 353.719 71.875C354.49 72.125 355.427 72.3646 356.531 72.5938C358.885 73.0312 361.031 73.6458 362.969 74.4375C364.927 75.2292 366.49 76.3229 367.656 77.7188C368.844 79.1146 369.438 80.9583 369.438 83.25C369.438 84.75 369.094 86.125 368.406 87.375C367.74 88.625 366.771 89.7188 365.5 90.6562C364.229 91.5938 362.708 92.3229 360.938 92.8438C359.167 93.3646 357.167 93.625 354.938 93.625C351.75 93.625 349.052 93.0521 346.844 91.9062C344.635 90.7604 342.969 89.3229 341.844 87.5938C340.74 85.8438 340.188 84.0521 340.188 82.2188H349.344C349.385 83.3438 349.667 84.2604 350.188 84.9688C350.729 85.6771 351.427 86.1979 352.281 86.5312C353.135 86.8438 354.094 87 355.156 87C356.219 87 357.104 86.8542 357.812 86.5625C358.521 86.2708 359.062 85.875 359.438 85.375C359.812 84.8542 360 84.2604 360 83.5938ZM392.062 59.1875V66.0312H372V59.1875H392.062ZM376.594 50.8125H386.375V82.4062C386.375 83.3438 386.49 84.0625 386.719 84.5625C386.948 85.0625 387.323 85.4167 387.844 85.625C388.365 85.8125 389.031 85.9062 389.844 85.9062C390.427 85.9062 390.927 85.8854 391.344 85.8438C391.76 85.8021 392.146 85.75 392.5 85.6875V92.75C391.667 93.0208 390.781 93.2292 389.844 93.375C388.906 93.5417 387.885 93.625 386.781 93.625C384.677 93.625 382.854 93.2812 381.312 92.5938C379.792 91.9062 378.625 90.8229 377.812 89.3438C377 87.8438 376.594 85.8958 376.594 83.5V50.8125ZM407.031 45V93H397.25V45H407.031ZM430 93.625C427.312 93.625 424.906 93.1979 422.781 92.3438C420.656 91.4896 418.854 90.3125 417.375 88.8125C415.917 87.2917 414.802 85.5417 414.031 83.5625C413.26 81.5833 412.875 79.4688 412.875 77.2188V76.0312C412.875 73.5104 413.229 71.1875 413.938 69.0625C414.646 66.9375 415.677 65.0938 417.031 63.5312C418.406 61.9479 420.094 60.7292 422.094 59.875C424.094 59 426.375 58.5625 428.938 58.5625C431.333 58.5625 433.469 58.9583 435.344 59.75C437.219 60.5208 438.802 61.6354 440.094 63.0938C441.385 64.5312 442.365 66.2708 443.031 68.3125C443.719 70.3333 444.062 72.6042 444.062 75.125V79.125H416.812V72.8438H434.5V72.0938C434.5 70.9062 434.281 69.8646 433.844 68.9688C433.427 68.0729 432.802 67.3854 431.969 66.9062C431.156 66.4062 430.125 66.1562 428.875 66.1562C427.688 66.1562 426.698 66.4062 425.906 66.9062C425.115 67.4062 424.479 68.1146 424 69.0312C423.542 69.9271 423.208 70.9792 423 72.1875C422.792 73.375 422.688 74.6562 422.688 76.0312V77.2188C422.688 78.5312 422.865 79.7292 423.219 80.8125C423.573 81.8958 424.094 82.8229 424.781 83.5938C425.469 84.3646 426.302 84.9688 427.281 85.4062C428.26 85.8438 429.375 86.0625 430.625 86.0625C432.167 86.0625 433.635 85.7708 435.031 85.1875C436.427 84.5833 437.635 83.6458 438.656 82.375L443.219 87.5938C442.531 88.5938 441.562 89.5625 440.312 90.5C439.083 91.4167 437.604 92.1667 435.875 92.75C434.146 93.3333 432.188 93.625 430 93.625Z" fill="white"/>
</svg>
