<svg width="40" height="45" viewBox="0 0 40 45" fill="none" xmlns="http://www.w3.org/2000/svg">
<path fill-rule="evenodd" clip-rule="evenodd" d="M19.11 0.163781C19.6832 -0.0545936 20.3168 -0.0545936 20.89 0.163781L38.39 6.83045C39.3711 7.20421 40.0142 8.15116 39.9998 9.20096C39.9042 16.1637 38.1714 23.0041 34.9438 29.1519C31.7161 35.3 27.086 40.5789 21.4367 44.546C20.5746 45.1513 19.4254 45.1513 18.5633 44.546C12.914 40.5789 8.28393 35.3 5.0562 29.1519C1.82857 23.0041 0.0957654 16.1637 0.000237076 9.20096C-0.0141662 8.15116 0.628893 7.20421 1.61001 6.83045L19.11 0.163781ZM29.1463 18.1315C30.1853 17.2223 30.2906 15.6429 29.3814 14.6038C28.4722 13.5647 26.8928 13.4594 25.8537 14.3686L17.6139 21.5784L15.5178 19.4823C14.5415 18.506 12.9585 18.506 11.9822 19.4823C11.0059 20.4586 11.0059 22.0415 11.9822 23.0178L15.7322 26.7678C16.6629 27.6985 18.1557 27.7482 19.1463 26.8815L29.1463 18.1315Z" fill="#2DDD97"/>
</svg>
